<svg xmlns="http://www.w3.org/2000/svg" viewBox="0 0 20 20" shape-rendering="crispEdges" width="100%" height="100%">
  <!-- Темно-оранжевый (уши и центр) -->
  <path fill="#E24329" d="M5,3 h2 v2 h-2 z M13,3 h2 v2 h-2 z M4,5 h3 v3 h-3 z M13,5 h3 v3 h-3 z M4,8 h12 v1 h-12 z M5,9 h10 v1 h-10 z M6,10 h8 v1 h-8 z M7,11 h6 v1 h-6 z M8,12 h4 v1 h-4 z M9,13 h2 v1 h-2 z"/>

  <!-- Средне-оранжевый (щеки) -->
  <path fill="#FC6D26" d="M3,8 h1 v1 h-1 z M16,8 h1 v1 h-1 z M2,9 h3 v1 h-3 z M15,9 h3 v1 h-3 z M2,10 h4 v1 h-4 z M14,10 h4 v1 h-4 z M3,11 h4 v1 h-4 z M13,11 h4 v1 h-4 z M5,12 h3 v1 h-3 z M12,12 h3 v1 h-3 z M6,13 h3 v1 h-3 z M11,13 h3 v1 h-3 z M7,14 h2 v1 h-2 z M11,14 h2 v1 h-2 z"/>

  <!-- Светло-оранжевый (подбородок) -->
  <path fill="#FCA326" d="M4,12 h1 v1 h-1 z M15,12 h1 v1 h-1 z M5,13 h1 v1 h-1 z M14,13 h1 v1 h-1 z M6,14 h1 v1 h-1 z M9,14 h2 v1 h-2 z M13,14 h1 v1 h-1 z M7,15 h6 v1 h-6 z M8,16 h4 v1 h-4 z M9,17 h2 v1 h-2 z"/>
</svg>
