<svg xmlns="http://www.w3.org/2000/svg" viewBox="0 0 20 20" shape-rendering="crispEdges" width="100%" height="100%">
  <path fill="var(--ak-line-2)" d="M4,5 h12 v1 h1 v10 h-1 v1 h-12 v-1 h-1 v-10 h1 z"/>
  <path fill="var(--ak-panel)" d="M4,7 h12 v8 h-12 z"/>
  <path fill="var(--ak-panel-2)" d="M5,8 h10 v6 h-10 z"/>
  <path fill="var(--ak-accent)" d="M5,6 h10 v1 h1 v2 h-1 v1 h-1 v1 h-1 v1 h-1 v1 h-1 v1 h-2 v-1 h-1 v-1 h-1 v-1 h-1 v-1 h-1 v-1 h-1 v-2 h1 z"/>
  <path fill="var(--ak-panel)" d="M5,7 h1 v1 h1 v1 h1 v1 h1 v1 h2 v-1 h1 v-1 h1 v-1 h1 v-1 h1 v1 h-1 v1 h-1 v1 h-1 v1 h-1 v1 h-1 v1 h-2 v-1 h-1 v-1 h-1 v-1 h-1 v-1 h-1 v-1 z"/>
  <path fill="var(--ak-muted)" d="M5,10 h1 v1 h1 v1 h1 v1 h1 v1 h2 v-1 h1 v-1 h1 v-1 h1 v-1 h1 v4 h-10 z"/>
  <path fill="var(--ak-panel-2)" d="M5,11 h1 v1 h1 v1 h1 v1 h4 v-1 h1 v-1 h1 v-1 h1 v3 h-10 z"/>
  <path fill="var(--ak-success)" d="M14,4 h2 v1 h1 v2 h-1 v1 h-2 v-1 h-1 v-2 h1 z"/>
  <path fill="var(--ak-bg)" d="M15,5 h1 v1 h-1 z"/>
</svg>
